<svg xmlns="http://www.w3.org/2000/svg" width="163" height="109" fill="none" viewBox="0 0 163 109"><path fill="#E6E6E6" fill-rule="evenodd" d="M131.705 16.4741H131.732C132.029 16.483 132.276 16.2494 132.285 15.9523C132.294 15.6552 132.061 15.4071 131.764 15.3982C131.201 15.3659 130.663 15.339 130.126 15.339C129.83 15.339 129.589 15.5798 129.589 15.877C129.589 16.1741 129.83 16.4149 130.126 16.4149C130.631 16.4203 131.168 16.4418 131.705 16.4741ZM123.188 17.0766C122.93 17.0824 122.705 16.904 122.651 16.6516C122.621 16.511 122.648 16.3642 122.727 16.2439C122.805 16.1236 122.929 16.0399 123.07 16.0115C123.607 15.9039 124.144 15.8016 124.681 15.7209C124.873 15.6912 125.066 15.7662 125.187 15.9177C125.309 16.0693 125.341 16.2744 125.271 16.4557C125.201 16.637 125.039 16.7671 124.847 16.7969C124.31 16.8776 123.811 16.9744 123.29 17.082C123.256 17.085 123.221 17.0832 123.188 17.0766ZM138.488 17.6738C138.54 17.679 138.592 17.679 138.644 17.6738L138.671 17.6899C138.863 17.7168 139.054 17.6392 139.174 17.4862C139.293 17.3332 139.321 17.1281 139.249 16.9482C139.176 16.7683 139.013 16.6409 138.821 16.614C138.284 16.458 137.747 16.3181 137.21 16.189C136.913 16.1192 136.617 16.3034 136.547 16.6005C136.477 16.8976 136.661 17.1951 136.958 17.2649C137.468 17.3833 137.983 17.5232 138.488 17.6738ZM116.596 19.1263C116.339 19.1257 116.118 18.9427 116.069 18.6896C116.021 18.4357 116.159 18.1831 116.4 18.088C116.904 17.8836 117.409 17.6899 117.919 17.507C118.195 17.4158 118.494 17.5611 118.593 17.8349C118.692 18.1087 118.555 18.4117 118.285 18.5184C117.79 18.6959 117.296 18.8842 116.802 19.0887C116.724 19.1205 116.639 19.1334 116.555 19.1263H116.596ZM144.831 20.2507C144.909 20.2968 144.998 20.3209 145.089 20.3206C145.335 20.3219 145.551 20.1549 145.612 19.9157C145.673 19.6765 145.563 19.4265 145.346 19.3092C144.874 19.051 144.385 18.7982 143.886 18.5614C143.712 18.4788 143.507 18.4952 143.349 18.6045C143.191 18.7139 143.103 18.8994 143.118 19.0914C143.134 19.2834 143.25 19.4525 143.424 19.5352C143.907 19.7611 144.38 20.0032 144.831 20.2507ZM110.348 22.2143C110.157 22.2135 109.981 22.1112 109.885 21.9453C109.738 21.6896 109.825 21.3632 110.078 21.2137C110.551 20.9393 111.024 20.6757 111.496 20.4175C111.664 20.3214 111.87 20.3223 112.038 20.4199C112.205 20.5175 112.307 20.6969 112.306 20.8906C112.305 21.0843 112.201 21.2628 112.033 21.3589C111.807 21.4814 111.582 21.6114 111.358 21.7411L111.358 21.7411C111.119 21.8792 110.881 22.0168 110.642 22.1443C110.539 22.2055 110.418 22.2302 110.299 22.2143H110.348ZM150.25 24.3339C150.35 24.4366 150.487 24.4947 150.631 24.4953H150.609C150.759 24.5035 150.905 24.4489 151.012 24.3447C151.22 24.1348 151.22 23.7959 151.012 23.5861C150.625 23.1934 150.223 22.8114 149.815 22.451C149.592 22.2552 149.253 22.2768 149.057 22.4994C148.862 22.7223 148.883 23.0617 149.106 23.2579C149.51 23.6166 149.892 23.9752 150.25 24.3339ZM104.496 26.0554C104.325 26.055 104.164 25.9731 104.064 25.8348C103.979 25.72 103.943 25.5761 103.964 25.4348C103.985 25.2935 104.062 25.1665 104.176 25.0817C104.617 24.7589 105.057 24.4469 105.497 24.1348C105.655 24.0243 105.859 24.0063 106.033 24.0875C106.207 24.1688 106.325 24.3369 106.342 24.5287C106.359 24.7204 106.272 24.9066 106.115 25.0171L104.815 25.9478C104.718 26.0211 104.599 26.059 104.477 26.0554H104.496ZM153.461 28.4655C153.735 28.912 153.993 29.3747 154.24 29.8427C154.331 30.0198 154.513 30.1317 154.712 30.1332C154.902 30.1346 155.078 30.0361 155.176 29.8739C155.274 29.7117 155.279 29.5098 155.19 29.3424C155.101 29.1842 155.014 29.0259 154.927 28.8684L154.926 28.8673L154.926 28.8666C154.747 28.5429 154.571 28.2223 154.379 27.9114C154.226 27.6579 153.897 27.5761 153.644 27.7285C153.391 27.8819 153.309 28.2114 153.461 28.4655ZM99.0422 30.4184L99.0308 30.4182C99.1655 30.4152 99.2941 30.3615 99.3913 30.2677L99.3914 30.2676C99.7995 29.918 100.208 29.5683 100.616 29.2294C100.844 29.0378 100.874 28.697 100.683 28.4682C100.492 28.2394 100.151 28.2093 99.9229 28.401L98.6877 29.4769C98.5203 29.6248 98.4617 29.861 98.5405 30.0702C98.6179 30.2759 98.8122 30.4133 99.0308 30.4182L99.0207 30.4184H99.0422ZM93.4079 34.8291C93.4902 35.0305 93.6854 35.1624 93.9027 35.1633H93.8812C94.0393 35.1706 94.1926 35.1076 94.3001 34.9911L94.4336 34.8609L94.5857 34.7123C94.8754 34.4292 95.1635 34.1476 95.4547 33.8722C95.6629 33.6623 95.6629 33.3234 95.4547 33.1136C95.3539 33.0118 95.2166 32.9545 95.0734 32.9545C94.9302 32.9545 94.793 33.0118 94.6921 33.1136L93.5267 34.2434C93.3725 34.3966 93.3256 34.6278 93.4079 34.8291ZM157.124 36.675C156.871 36.6824 156.647 36.5121 156.587 36.2661C156.463 35.7282 156.329 35.2278 156.179 34.7329C156.139 34.5959 156.155 34.4487 156.223 34.3236C156.292 34.1985 156.407 34.1058 156.544 34.0658C156.827 33.9822 157.124 34.1432 157.21 34.4263L157.247 34.5607C157.384 35.0499 157.516 35.5203 157.634 36.0133C157.668 36.1524 157.645 36.2994 157.57 36.4216C157.496 36.5437 157.376 36.6311 157.237 36.6642L157.124 36.675ZM88.6665 40.0319C88.7655 40.1248 88.896 40.1767 89.0316 40.1772H89.0102C89.1756 40.1911 89.3382 40.1275 89.4505 40.005L90.5246 38.8323C90.7029 38.6138 90.6824 38.2945 90.4776 38.1008C90.2729 37.907 89.9535 37.9046 89.7459 38.0952C89.3754 38.4826 89.0048 38.8753 88.6396 39.2734C88.4386 39.4906 88.4506 39.8296 88.6665 40.0319ZM158.096 43.5933C157.811 43.5938 157.576 43.3721 157.559 43.0876C157.527 42.5497 157.489 42.0117 157.441 41.4737C157.414 41.1766 157.633 40.9141 157.929 40.8873C158.226 40.8606 158.488 41.0798 158.515 41.3769C158.563 41.9148 158.606 42.4528 158.633 42.9908C158.633 43.2757 158.412 43.5117 158.128 43.5288L158.096 43.5933ZM83.8704 45.0748C83.9567 45.2651 84.1453 45.3881 84.354 45.3902H84.3432C84.5012 45.3931 84.6525 45.3262 84.7568 45.2072C85.1214 44.799 85.4753 44.3962 85.8292 43.9933L85.8298 43.9926L85.8308 43.9914C85.9676 43.8488 86.0152 43.6424 85.9548 43.4541C85.8944 43.2658 85.7357 43.1259 85.5415 43.0898C85.3474 43.0537 85.1491 43.1273 85.0253 43.2813C84.6547 43.6848 84.3003 44.0936 83.9512 44.5025C83.8155 44.6613 83.784 44.8845 83.8704 45.0748ZM157.924 50.587H157.967C158.11 50.5856 158.247 50.5268 158.347 50.4237C158.447 50.3206 158.501 50.1818 158.499 50.0382C158.542 49.5003 158.579 48.9623 158.606 48.4243C158.621 48.1291 158.396 47.8768 158.101 47.8594C157.954 47.8521 157.811 47.9055 157.704 48.0072C157.597 48.1089 157.537 48.25 157.537 48.3974C157.505 48.9354 157.473 49.4734 157.43 50.0113C157.408 50.3067 157.629 50.5641 157.924 50.587ZM79.8428 50.7484C79.7191 50.7474 79.5996 50.7037 79.5044 50.6246C79.2775 50.4367 79.244 50.1007 79.4293 49.8715L80.455 48.6234C80.574 48.4725 80.7643 48.3967 80.9542 48.4244C81.1441 48.4522 81.3048 48.5793 81.3757 48.758C81.4467 48.9366 81.4171 49.1396 81.2982 49.2905L80.2778 50.5332C80.1752 50.6702 80.0137 50.7501 79.8428 50.7484ZM5.11817 55.0575C5.20966 55.1263 5.32066 55.164 5.43503 55.1651C5.60691 55.1656 5.76862 55.0836 5.87003 54.9445C6.17615 54.5303 6.50375 54.1107 6.84746 53.7072C7.03877 53.4799 7.00991 53.1403 6.78301 52.9487C6.55611 52.757 6.21708 52.7859 6.02578 53.0132C5.67133 53.4382 5.32762 53.874 5.00539 54.3097C4.83223 54.5479 4.88251 54.8812 5.11817 55.0575ZM75.4605 56.2088C75.2541 56.2099 75.0653 56.0924 74.9749 55.9066C74.8844 55.7208 74.9083 55.4995 75.0362 55.3373L76.0405 54.0677C76.1581 53.9108 76.3517 53.8305 76.5456 53.8582C76.7395 53.8859 76.903 54.0171 76.9723 54.2006C77.0415 54.3842 77.0055 54.5909 76.8783 54.7401L75.8794 56.0044C75.7804 56.1299 75.6309 56.2048 75.4712 56.2088H75.4605ZM156.92 57.5161C156.953 57.5217 156.988 57.5217 157.022 57.5161C157.278 57.5255 157.505 57.352 157.564 57.1018C157.661 56.5638 157.752 56.0259 157.843 55.4879C157.875 55.2957 157.802 55.1012 157.652 54.9776C157.501 54.8541 157.297 54.8202 157.115 54.8889C156.933 54.9575 156.801 55.1182 156.769 55.3104C156.685 55.8089 156.6 56.2797 156.511 56.7741L156.511 56.777L156.51 56.781L156.509 56.7845L156.49 56.892C156.438 57.1829 156.63 57.4616 156.92 57.5161ZM2.2396 61.3787C2.18796 61.3863 2.1355 61.3863 2.08386 61.3787C1.8007 61.2909 1.64206 60.99 1.72941 60.7062C1.88515 60.1683 2.07312 59.6572 2.26645 59.1407C2.33002 58.9511 2.4934 58.8124 2.69062 58.7807C2.88783 58.7491 3.08629 58.8297 3.20582 58.99C3.32536 59.1503 3.34622 59.3638 3.25999 59.5442C3.06665 60.0338 2.88943 60.5287 2.72294 61.0183C2.64368 61.2121 2.45927 61.3423 2.25034 61.3518L2.2396 61.3787ZM70.8365 61.6477C70.9303 61.7206 71.0454 61.7603 71.1641 61.7607L71.1749 61.7338C71.3328 61.7367 71.4841 61.6698 71.5884 61.5509L72.5765 60.2759C72.759 60.0397 72.7157 59.7 72.4799 59.5173C72.2441 59.3346 71.9051 59.3779 71.7226 59.6142L70.7398 60.8945C70.5595 61.1294 70.6027 61.4661 70.8365 61.6477ZM155.411 64.3537C155.361 64.3589 155.31 64.3589 155.26 64.3537C155.123 64.3137 155.008 64.221 154.94 64.0959C154.871 63.9708 154.855 63.8236 154.895 63.6866C155.029 63.2132 155.174 62.6967 155.319 62.1426C155.355 62.0041 155.444 61.8854 155.567 61.8127C155.69 61.74 155.836 61.7194 155.974 61.7553C156.113 61.7918 156.231 61.8823 156.303 62.0066C156.374 62.1308 156.393 62.2786 156.356 62.417C156.211 62.955 156.066 63.4929 155.926 63.9825C155.854 64.2056 155.645 64.3559 155.411 64.3537ZM66.4364 67.014C66.5278 67.1982 66.7161 67.3141 66.9215 67.3125V67.291C67.0839 67.2873 67.2359 67.2102 67.335 67.0812L68.3285 65.817C68.4923 65.5804 68.4411 65.2566 68.2124 65.0823C67.9837 64.908 67.6586 64.9449 67.4746 65.166L66.4918 66.4464C66.3665 66.6094 66.345 66.8297 66.4364 67.014ZM1.68107 68.2863C1.41151 68.2889 1.18175 68.091 1.14403 67.8236C1.06884 67.2856 1.02051 66.71 0.999023 66.1613C0.999023 65.8642 1.23947 65.6233 1.53607 65.6233C1.83267 65.6233 2.07312 65.8642 2.07312 66.1613C2.09096 66.6797 2.13577 67.1969 2.20738 67.7106C2.22722 67.8527 2.18959 67.9968 2.10287 68.111C2.01614 68.2251 1.8875 68.2999 1.74552 68.3186L1.68107 68.2863ZM62.1711 72.5581C62.2611 72.7419 62.4475 72.8586 62.6519 72.859V72.8375C62.8145 72.8424 62.9705 72.7731 63.0762 72.6492L64.0644 71.3742C64.196 71.2237 64.2333 71.0124 64.1612 70.8257C64.0891 70.6391 63.9196 70.5079 63.7211 70.4853C63.5226 70.4627 63.3279 70.5523 63.2158 70.7179L62.2277 71.9929C62.103 72.1552 62.081 72.3742 62.1711 72.5581ZM3.89907 74.8872C3.69517 74.8815 3.51207 74.7607 3.42647 74.5752C3.16869 74.0749 2.92702 73.5746 2.7122 73.0904C2.65442 72.9598 2.65082 72.8116 2.7022 72.6784C2.75357 72.5452 2.85571 72.438 2.98609 72.3803C3.11641 72.3224 3.26435 72.3188 3.39732 72.3702C3.53029 72.4217 3.63738 72.524 3.695 72.6546C3.90444 73.1173 4.13537 73.6014 4.38241 74.0802C4.44782 74.2078 4.45964 74.3563 4.41528 74.4927C4.37091 74.6291 4.27401 74.742 4.14611 74.8065C4.06968 74.8457 3.98496 74.866 3.89907 74.8657V74.8872ZM57.9581 78.2173C58.0548 78.2975 58.1764 78.3412 58.3019 78.341C58.4625 78.3399 58.6142 78.2669 58.7154 78.1419L59.7358 76.8831C59.9198 76.6524 59.8839 76.3163 59.6552 76.1299C59.5443 76.0397 59.402 75.9974 59.2598 76.0126C59.1177 76.0277 58.9875 76.099 58.898 76.2106C58.5596 76.6356 58.2213 77.0499 57.883 77.4641C57.6977 77.6933 57.7312 78.0293 57.9581 78.2173ZM7.72284 80.7242C7.55755 80.7251 7.40106 80.6497 7.29858 80.5198C6.95487 80.084 6.62727 79.6483 6.31041 79.2125C6.22663 79.0964 6.19256 78.9516 6.21574 78.8102C6.23893 78.6688 6.31746 78.5425 6.43393 78.4593C6.67445 78.2882 7.00776 78.3434 7.18043 78.5831C7.49191 79.0081 7.80877 79.4331 8.14174 79.8527C8.2691 80.0141 8.29337 80.2342 8.20426 80.4196C8.11514 80.605 7.92826 80.7233 7.72284 80.7242ZM53.3879 83.5217C53.4864 83.6113 53.6146 83.6612 53.7477 83.6615V83.6346C53.8989 83.6443 54.0471 83.5896 54.1559 83.484L54.3861 83.2251C54.6624 82.9145 54.9445 82.5973 55.23 82.2736C55.3667 82.1309 55.4143 81.9246 55.3539 81.7363C55.2935 81.548 55.1348 81.4081 54.9406 81.372C54.7465 81.3359 54.5482 81.4094 54.4244 81.5634C54.0829 81.9514 53.7415 82.3297 53.4047 82.7029L53.3503 82.7631C53.1521 82.9832 53.1689 83.3224 53.3879 83.5217ZM12.4435 85.8726C12.3104 85.8723 12.1822 85.8224 12.0837 85.7327C11.6809 85.3615 11.2835 84.985 10.9022 84.6084C10.6901 84.4004 10.6865 84.0596 10.8941 83.8471C11.1017 83.6347 11.4419 83.6311 11.654 83.8391C12.03 84.2103 12.4166 84.5761 12.8087 84.915C12.9147 85.0117 12.9778 85.1468 12.9838 85.2902C12.9899 85.4337 12.9384 85.5737 12.8409 85.6789C12.7423 85.7976 12.5976 85.8682 12.4435 85.8726ZM48.3611 88.3688C48.4622 88.4903 48.6114 88.5611 48.7693 88.5625C48.8989 88.5538 49.021 88.4984 49.113 88.4065L49.2365 88.3042C49.6017 87.9922 49.9669 87.6641 50.3428 87.3198C50.5608 87.1177 50.5741 86.7769 50.3724 86.5585C50.1707 86.3401 49.8305 86.3269 49.6124 86.5289C49.2526 86.8625 48.8928 87.1799 48.5384 87.4865L48.4202 87.6103C48.312 87.703 48.2449 87.835 48.2338 87.9773C48.2228 88.1195 48.2685 88.2604 48.3611 88.3688ZM17.9965 90.1065C17.8942 90.1078 17.7935 90.0798 17.7065 90.0258C17.25 89.7353 16.7936 89.4286 16.3478 89.1166C16.105 88.947 16.0449 88.6125 16.2135 88.3688C16.3828 88.1255 16.7167 88.0654 16.96 88.2343C17.395 88.541 17.8354 88.8315 18.2812 89.1166C18.4802 89.2453 18.5715 89.4894 18.5059 89.7174C18.4403 89.9454 18.2334 90.1035 17.9965 90.1065ZM42.5073 92.097C42.5974 92.281 42.784 92.3978 42.9885 92.3982H42.9692C43.0582 92.402 43.1468 92.3835 43.227 92.3444C43.7103 92.1023 44.199 91.8387 44.677 91.5644C44.9327 91.4166 45.0215 91.0899 44.8757 90.8327C44.8048 90.7082 44.6873 90.6172 44.5492 90.5798C44.4111 90.5424 44.2637 90.5618 44.1399 90.6337C43.6835 90.8973 43.2162 91.1501 42.749 91.3761C42.4837 91.5084 42.3755 91.831 42.5073 92.097ZM24.2316 93.2267C24.1694 93.2266 24.1076 93.2157 24.049 93.1944C23.512 93.0061 23.0287 92.8017 22.5238 92.5865C22.3473 92.5106 22.2246 92.3461 22.202 92.155C22.1794 91.9639 22.2603 91.7753 22.4141 91.6601C22.568 91.5449 22.7716 91.5207 22.9481 91.5966C23.4314 91.8064 23.9309 92.0001 24.4196 92.183C24.6656 92.2724 24.8114 92.5263 24.765 92.7843C24.7185 93.0422 24.4933 93.229 24.2316 93.2267ZM35.8837 94.3053C35.9921 94.4645 36.177 94.5538 36.3689 94.5394L36.4656 94.5286C37.0026 94.4425 37.5396 94.3349 38.0767 94.2058C38.3638 94.1367 38.5414 93.8483 38.4741 93.5602C38.4421 93.4211 38.3563 93.3004 38.2354 93.2247C38.1145 93.149 37.9685 93.1246 37.8297 93.1568C37.3195 93.2805 36.7985 93.3827 36.2883 93.4634C36.0965 93.4778 35.9268 93.5937 35.8434 93.7673C35.7599 93.941 35.7753 94.1461 35.8837 94.3053ZM30.9555 94.7438H30.9984L31.0199 94.733C31.3165 94.7449 31.5666 94.5137 31.5784 94.2166C31.5903 93.9194 31.3595 93.669 31.0629 93.6571C30.5401 93.614 30.0192 93.5549 29.5001 93.4795C29.3082 93.4517 29.1161 93.5285 28.996 93.681C28.876 93.8335 28.8463 94.0386 28.9182 94.2189C28.99 94.3993 29.1525 94.5276 29.3443 94.5555C29.8814 94.6362 30.4184 94.7007 30.9555 94.7438ZM10.2746 50.1297C10.0481 50.1287 9.84632 49.9854 9.77064 49.7712C9.69445 49.5556 9.76272 49.3152 9.94084 49.1721C10.6559 48.5952 11.1437 48.2589 11.2547 48.1823C11.2679 48.1732 11.2758 48.1678 11.2781 48.1661C11.5255 48.0087 11.8533 48.0791 12.0145 48.3243C12.1758 48.5695 12.1109 48.8989 11.8688 49.0645C11.8688 49.0645 11.3694 49.398 10.6175 50.006C10.5195 50.0874 10.3958 50.1312 10.2684 50.1297H10.2746Z" clip-rule="evenodd"/><path fill="#39475F" d="M120.846 101.221H59.145L71.3306 1.79285H126.356L132.103 9.3944L120.846 101.221Z"/><path fill="#61728D" d="M114.171 101.221H52.4644L64.6499 1.79285H126.357L114.171 101.221Z"/><path fill="#181F27" d="M111.131 82.3543H59.5747L68.3662 10.6586H119.923L111.131 82.3543Z"/><path fill="#1E252E" d="M93.7417 51.0551L108.639 51.2326L108.349 53.5405L93.7417 53.2876V51.0551Z"/><path fill="#39475F" d="M52.4644 101.221L59.8863 108.086L119.923 109L120.846 101.221H52.4644Z"/><path fill="#2D394B" d="M100.095 30.0579C100.095 30.0579 102.667 30.2408 103.983 35.088C105.299 39.9351 104.848 53.4651 104.848 53.4651L93.7522 53.2876C93.7522 53.2876 88.2152 33.1513 100.095 30.0579Z"/><path fill="#fff" d="M25.8637 50.0803C24.8989 48.8907 25.0797 47.1444 26.2677 46.1776L31.6058 41.8335C32.7967 40.8644 34.548 41.0457 35.5151 42.2382C36.4799 43.4279 36.2992 45.1741 35.1111 46.1409L29.773 50.485C28.5822 51.4541 26.8309 51.2728 25.8637 50.0803Z" opacity=".46"/><ellipse cx="18.937" cy="34.636" fill="#fff" opacity=".3" rx="3.673" ry="3.68"/><ellipse cx="22.664" cy="31.285" fill="#fff" opacity=".3" rx="3.673" ry="3.68"/><path fill="#BAD6FA" d="M100.095 30.058C100.095 30.058 94.2572 32.1614 96.2926 48.6395C97.7856 60.7116 92.7427 76.6948 85.2885 76.8885C77.8343 77.0822 64.0859 76.4258 64.0859 76.4258C64.0859 76.4258 71.2448 57.8658 69.7625 42.2807C69.5347 40.0988 69.7952 37.8934 70.5251 35.825C71.3951 33.4526 73.0116 30.9833 76.0191 30.5798C82.0233 29.7621 100.095 30.058 100.095 30.058Z"/><path fill="#546F8D" d="M59.9559 77.6309L86.298 77.0929C86.298 77.0929 82.2809 73.1011 82.0285 62.9388L45.7939 63.4768C46.415 66.0989 47.3698 68.6301 48.6349 71.0084C50.8663 75.1717 55.2397 77.73 59.9559 77.6309Z"/><path fill="#2D394B" d="M79.2089 15.8339L78.2905 21.8754H104.912L105.717 15.8339H79.2089Z"/><path fill="#fff" d="M86.5398 87.1907C83.6666 84.673 79.1232 85.1679 77.0932 88.4119C76.5808 89.2001 76.3032 90.1182 76.293 91.0587C76.293 95.0397 79.0373 97.6489 84.5205 96.5514C88.7041 95.7122 90.2991 90.4777 86.5398 87.1907Z" opacity=".48"/><ellipse cx="148.187" cy="82.543" fill="#4E8D67" rx="14.812" ry="14.837"/><path fill="#fff" d="M74.73 36.7503C74.5381 36.7571 74.3573 36.6608 74.2555 36.4977C74.1538 36.3346 74.1466 36.1295 74.2367 35.9597C74.3268 35.7899 74.5005 35.6811 74.6924 35.6744C74.8052 35.6744 86.0348 34.8459 92.0551 35.3839C92.3517 35.4106 92.5705 35.6732 92.5438 35.9703C92.5171 36.2674 92.255 36.4866 91.9584 36.4598C86.0509 35.9219 74.8804 36.7342 74.773 36.745L74.73 36.7503Z"/><path fill="#fff" d="M73.8384 44.0291C73.5418 44.0395 73.2929 43.8071 73.2826 43.51C73.2722 43.2128 73.5042 42.9635 73.8008 42.9531C73.9136 42.9531 85.1432 42.1247 91.1635 42.6626C91.4601 42.6894 91.6789 42.9519 91.6522 43.249C91.6255 43.5461 91.3635 43.7653 91.0668 43.7386C85.1593 43.2006 73.9941 44.0183 73.8814 44.0237L73.8384 44.0291Z"/><path fill="#fff" d="M73.7367 51.593C73.4401 51.6049 73.19 51.3737 73.1782 51.0765C73.1663 50.7794 73.3971 50.5289 73.6937 50.5171C73.8065 50.5171 85.0415 49.6886 91.0564 50.2265C91.2483 50.2438 91.4164 50.3624 91.4974 50.5375C91.5784 50.7126 91.5599 50.9176 91.449 51.0754C91.3381 51.2332 91.1516 51.3198 90.9598 51.3025C85.0523 50.7645 73.8871 51.5822 73.7743 51.5876L73.7367 51.593Z"/><path fill="#fff" d="M73.0225 59.1569C72.8306 59.1636 72.6497 59.0673 72.548 58.9042C72.4462 58.7411 72.4391 58.5361 72.5292 58.3663C72.6193 58.1964 72.793 58.0877 72.9849 58.081C73.0977 58.081 84.3273 57.2525 90.3476 57.7958C90.5395 57.8131 90.7075 57.9317 90.7885 58.1068C90.8695 58.2819 90.8511 58.4869 90.7402 58.6447C90.6293 58.8025 90.4428 58.8891 90.2509 58.8718C84.3434 58.3338 73.1782 59.1515 73.0654 59.1569H73.0225Z"/><g clip-path="url(#clip0_103_113)"><path fill="#4E8D67" d="M2.14014 32.6234L11.2357 44.1806L35.8325 30.3275L16.586 50.979L25.6815 62.5362L51.9084 17.6758L2.14014 32.6234Z"/></g><defs><clipPath id="clip0_103_113"><rect width="48.354" height="44.986" fill="#fff" transform="translate(0 29.904) rotate(-38.2026)"/></clipPath></defs></svg>